<mxfile host="app.diagrams.net" agent="Mozilla/5.0 (Windows NT 10.0; Win64; x64) AppleWebKit/537.36 (KHTML, like Gecko) Chrome/131.0.0.0 Safari/537.36" version="25.0.3">
  <diagram id="P3g0tUl8lwK3zoQHTx6y" name="第 1 页">
    <mxGraphModel dx="2501" dy="738" grid="1" gridSize="10" guides="1" tooltips="1" connect="1" arrows="1" fold="1" page="1" pageScale="1" pageWidth="827" pageHeight="1169" math="0" shadow="0">
      <root>
        <mxCell id="0" />
        <mxCell id="1" parent="0" />
        <mxCell id="_wDtnUVdnjIwgod1rhjn-1" value="" style="rounded=0;whiteSpace=wrap;html=1;" vertex="1" parent="1">
          <mxGeometry x="70" y="200" width="270" height="610" as="geometry" />
        </mxCell>
        <mxCell id="_wDtnUVdnjIwgod1rhjn-2" value="&lt;div&gt;cn-shanghai.172.20.1.27&lt;/div&gt;&lt;div&gt;cn-shanghai.172.20.1.59&lt;/div&gt;&lt;div&gt;cn-shanghai.172.20.1.60&lt;/div&gt;&lt;div&gt;cn-shanghai.172.20.1.65&lt;/div&gt;&lt;div&gt;cn-shanghai.172.20.1.72&lt;/div&gt;" style="rounded=1;whiteSpace=wrap;html=1;" vertex="1" parent="1">
          <mxGeometry x="100" y="290" width="180" height="130" as="geometry" />
        </mxCell>
        <mxCell id="_wDtnUVdnjIwgod1rhjn-3" value="GPU服务器" style="text;html=1;align=center;verticalAlign=middle;whiteSpace=wrap;rounded=0;" vertex="1" parent="1">
          <mxGeometry x="145" y="390" width="90" height="30" as="geometry" />
        </mxCell>
        <mxCell id="_wDtnUVdnjIwgod1rhjn-4" value="" style="rounded=1;whiteSpace=wrap;html=1;" vertex="1" parent="1">
          <mxGeometry x="100" y="440" width="180" height="340" as="geometry" />
        </mxCell>
        <mxCell id="_wDtnUVdnjIwgod1rhjn-5" value="企微 动态表单 Social Retainer" style="text;html=1;align=center;verticalAlign=middle;whiteSpace=wrap;rounded=0;" vertex="1" parent="1">
          <mxGeometry x="100" y="445" width="180" height="30" as="geometry" />
        </mxCell>
        <mxCell id="_wDtnUVdnjIwgod1rhjn-6" value="&lt;b&gt;公用资源池&lt;/b&gt;" style="text;html=1;align=center;verticalAlign=middle;whiteSpace=wrap;rounded=0;" vertex="1" parent="1">
          <mxGeometry x="150" y="750" width="80" height="30" as="geometry" />
        </mxCell>
        <mxCell id="_wDtnUVdnjIwgod1rhjn-7" value="AI 大宗云店" style="text;html=1;align=center;verticalAlign=middle;whiteSpace=wrap;rounded=0;" vertex="1" parent="1">
          <mxGeometry x="120" y="290" width="140" height="30" as="geometry" />
        </mxCell>
        <mxCell id="_wDtnUVdnjIwgod1rhjn-8" value="" style="aspect=fixed;sketch=0;html=1;dashed=0;whitespace=wrap;verticalLabelPosition=bottom;verticalAlign=top;fillColor=#2875E2;strokeColor=#ffffff;points=[[0.005,0.63,0],[0.1,0.2,0],[0.9,0.2,0],[0.5,0,0],[0.995,0.63,0],[0.72,0.99,0],[0.5,1,0],[0.28,0.99,0]];shape=mxgraph.kubernetes.icon2;prIcon=node" vertex="1" parent="1">
          <mxGeometry x="260" y="343" width="35.42" height="34" as="geometry" />
        </mxCell>
        <mxCell id="_wDtnUVdnjIwgod1rhjn-9" value="" style="aspect=fixed;sketch=0;html=1;dashed=0;whitespace=wrap;verticalLabelPosition=bottom;verticalAlign=top;fillColor=#2875E2;strokeColor=#ffffff;points=[[0.005,0.63,0],[0.1,0.2,0],[0.9,0.2,0],[0.5,0,0],[0.995,0.63,0],[0.72,0.99,0],[0.5,1,0],[0.28,0.99,0]];shape=mxgraph.kubernetes.icon2;prIcon=node" vertex="1" parent="1">
          <mxGeometry x="260" y="585" width="35.42" height="34" as="geometry" />
        </mxCell>
        <mxCell id="_wDtnUVdnjIwgod1rhjn-10" value="生产集群" style="text;html=1;align=center;verticalAlign=middle;whiteSpace=wrap;rounded=0;" vertex="1" parent="1">
          <mxGeometry x="340" y="450" width="20" height="80" as="geometry" />
        </mxCell>
        <mxCell id="_wDtnUVdnjIwgod1rhjn-11" value="139.196.91.226" style="rounded=1;whiteSpace=wrap;html=1;" vertex="1" parent="1">
          <mxGeometry x="-100" y="337.5" width="120" height="35" as="geometry" />
        </mxCell>
        <mxCell id="_wDtnUVdnjIwgod1rhjn-12" value="" style="endArrow=classic;html=1;rounded=0;exitX=0;exitY=0.5;exitDx=0;exitDy=0;entryX=1;entryY=0.5;entryDx=0;entryDy=0;" edge="1" parent="1" source="_wDtnUVdnjIwgod1rhjn-2" target="_wDtnUVdnjIwgod1rhjn-11">
          <mxGeometry width="50" height="50" relative="1" as="geometry">
            <mxPoint x="280" y="460" as="sourcePoint" />
            <mxPoint x="330" y="410" as="targetPoint" />
          </mxGeometry>
        </mxCell>
        <mxCell id="_wDtnUVdnjIwgod1rhjn-13" value="出口IP" style="text;html=1;align=center;verticalAlign=middle;whiteSpace=wrap;rounded=0;" vertex="1" parent="1">
          <mxGeometry x="-70" y="313" width="60" height="30" as="geometry" />
        </mxCell>
        <mxCell id="_wDtnUVdnjIwgod1rhjn-14" value="出口IP" style="text;html=1;align=center;verticalAlign=middle;whiteSpace=wrap;rounded=0;" vertex="1" parent="1">
          <mxGeometry x="-70" y="450" width="60" height="30" as="geometry" />
        </mxCell>
        <mxCell id="_wDtnUVdnjIwgod1rhjn-15" value="47.101.218.254" style="rounded=0;whiteSpace=wrap;html=1;" vertex="1" parent="1">
          <mxGeometry x="-100" y="480" width="120" height="30" as="geometry" />
        </mxCell>
        <mxCell id="_wDtnUVdnjIwgod1rhjn-16" value="47.100.28.40" style="rounded=0;whiteSpace=wrap;html=1;" vertex="1" parent="1">
          <mxGeometry x="-100" y="520" width="120" height="30" as="geometry" />
        </mxCell>
        <mxCell id="_wDtnUVdnjIwgod1rhjn-17" value="47.100.245.189" style="rounded=0;whiteSpace=wrap;html=1;" vertex="1" parent="1">
          <mxGeometry x="-100" y="562" width="120" height="30" as="geometry" />
        </mxCell>
        <mxCell id="_wDtnUVdnjIwgod1rhjn-18" value="139.196.9.209" style="rounded=0;whiteSpace=wrap;html=1;" vertex="1" parent="1">
          <mxGeometry x="-100" y="600" width="120" height="30" as="geometry" />
        </mxCell>
        <mxCell id="_wDtnUVdnjIwgod1rhjn-19" value="139.196.10.145" style="rounded=0;whiteSpace=wrap;html=1;" vertex="1" parent="1">
          <mxGeometry x="-100" y="640" width="120" height="30" as="geometry" />
        </mxCell>
        <mxCell id="_wDtnUVdnjIwgod1rhjn-20" value="101.132.186.110" style="rounded=0;whiteSpace=wrap;html=1;" vertex="1" parent="1">
          <mxGeometry x="-100" y="680" width="120" height="30" as="geometry" />
        </mxCell>
        <mxCell id="_wDtnUVdnjIwgod1rhjn-21" value="101.132.73.60" style="rounded=0;whiteSpace=wrap;html=1;" vertex="1" parent="1">
          <mxGeometry x="-100" y="720" width="120" height="30" as="geometry" />
        </mxCell>
        <mxCell id="_wDtnUVdnjIwgod1rhjn-22" value="cn-shanghai.172.20.1.1" style="rounded=0;whiteSpace=wrap;html=1;" vertex="1" parent="1">
          <mxGeometry x="120" y="480" width="140" height="30" as="geometry" />
        </mxCell>
        <mxCell id="_wDtnUVdnjIwgod1rhjn-23" value="" style="endArrow=classic;html=1;rounded=0;exitX=0;exitY=0.5;exitDx=0;exitDy=0;entryX=1;entryY=0.5;entryDx=0;entryDy=0;" edge="1" parent="1" source="_wDtnUVdnjIwgod1rhjn-22" target="_wDtnUVdnjIwgod1rhjn-15">
          <mxGeometry width="50" height="50" relative="1" as="geometry">
            <mxPoint x="280" y="620" as="sourcePoint" />
            <mxPoint x="330" y="570" as="targetPoint" />
          </mxGeometry>
        </mxCell>
        <mxCell id="_wDtnUVdnjIwgod1rhjn-24" value="cn-shanghai.172.20.1.7" style="rounded=0;whiteSpace=wrap;html=1;" vertex="1" parent="1">
          <mxGeometry x="120" y="520" width="140" height="30" as="geometry" />
        </mxCell>
        <mxCell id="_wDtnUVdnjIwgod1rhjn-25" value="cn-shanghai.172.20.1.12" style="rounded=0;whiteSpace=wrap;html=1;" vertex="1" parent="1">
          <mxGeometry x="120" y="562" width="140" height="30" as="geometry" />
        </mxCell>
        <mxCell id="_wDtnUVdnjIwgod1rhjn-26" value="" style="endArrow=classic;html=1;rounded=0;exitX=0;exitY=0.5;exitDx=0;exitDy=0;entryX=1;entryY=0.5;entryDx=0;entryDy=0;" edge="1" parent="1" source="_wDtnUVdnjIwgod1rhjn-24" target="_wDtnUVdnjIwgod1rhjn-16">
          <mxGeometry width="50" height="50" relative="1" as="geometry">
            <mxPoint x="280" y="620" as="sourcePoint" />
            <mxPoint x="330" y="570" as="targetPoint" />
          </mxGeometry>
        </mxCell>
        <mxCell id="_wDtnUVdnjIwgod1rhjn-27" value="" style="endArrow=classic;html=1;rounded=0;exitX=0;exitY=0.5;exitDx=0;exitDy=0;entryX=1;entryY=0.5;entryDx=0;entryDy=0;" edge="1" parent="1" source="_wDtnUVdnjIwgod1rhjn-25" target="_wDtnUVdnjIwgod1rhjn-17">
          <mxGeometry width="50" height="50" relative="1" as="geometry">
            <mxPoint x="280" y="620" as="sourcePoint" />
            <mxPoint x="330" y="570" as="targetPoint" />
          </mxGeometry>
        </mxCell>
        <mxCell id="_wDtnUVdnjIwgod1rhjn-28" value="cn-shanghai.172.20.1.35" style="rounded=0;whiteSpace=wrap;html=1;" vertex="1" parent="1">
          <mxGeometry x="120" y="600" width="140" height="30" as="geometry" />
        </mxCell>
        <mxCell id="_wDtnUVdnjIwgod1rhjn-29" value="cn-shanghai.172.20.1.36" style="rounded=0;whiteSpace=wrap;html=1;" vertex="1" parent="1">
          <mxGeometry x="120" y="640" width="140" height="30" as="geometry" />
        </mxCell>
        <mxCell id="_wDtnUVdnjIwgod1rhjn-30" value="cn-shanghai.172.20.1.37" style="rounded=0;whiteSpace=wrap;html=1;" vertex="1" parent="1">
          <mxGeometry x="120" y="680" width="140" height="30" as="geometry" />
        </mxCell>
        <mxCell id="_wDtnUVdnjIwgod1rhjn-31" value="cn-shanghai.172.20.1.41" style="rounded=0;whiteSpace=wrap;html=1;" vertex="1" parent="1">
          <mxGeometry x="120" y="720" width="140" height="30" as="geometry" />
        </mxCell>
        <mxCell id="_wDtnUVdnjIwgod1rhjn-32" value="" style="endArrow=classic;html=1;rounded=0;exitX=0;exitY=0.5;exitDx=0;exitDy=0;entryX=1;entryY=0.5;entryDx=0;entryDy=0;" edge="1" parent="1" source="_wDtnUVdnjIwgod1rhjn-28" target="_wDtnUVdnjIwgod1rhjn-18">
          <mxGeometry width="50" height="50" relative="1" as="geometry">
            <mxPoint x="280" y="620" as="sourcePoint" />
            <mxPoint x="330" y="570" as="targetPoint" />
          </mxGeometry>
        </mxCell>
        <mxCell id="_wDtnUVdnjIwgod1rhjn-33" value="" style="endArrow=classic;html=1;rounded=0;exitX=0;exitY=0.5;exitDx=0;exitDy=0;entryX=1;entryY=0.5;entryDx=0;entryDy=0;" edge="1" parent="1" source="_wDtnUVdnjIwgod1rhjn-29" target="_wDtnUVdnjIwgod1rhjn-19">
          <mxGeometry width="50" height="50" relative="1" as="geometry">
            <mxPoint x="280" y="620" as="sourcePoint" />
            <mxPoint x="330" y="570" as="targetPoint" />
          </mxGeometry>
        </mxCell>
        <mxCell id="_wDtnUVdnjIwgod1rhjn-34" value="" style="endArrow=classic;html=1;rounded=0;exitX=0;exitY=0.5;exitDx=0;exitDy=0;entryX=1;entryY=0.5;entryDx=0;entryDy=0;" edge="1" parent="1" source="_wDtnUVdnjIwgod1rhjn-30" target="_wDtnUVdnjIwgod1rhjn-20">
          <mxGeometry width="50" height="50" relative="1" as="geometry">
            <mxPoint x="280" y="620" as="sourcePoint" />
            <mxPoint x="330" y="570" as="targetPoint" />
          </mxGeometry>
        </mxCell>
        <mxCell id="_wDtnUVdnjIwgod1rhjn-35" value="" style="endArrow=classic;html=1;rounded=0;exitX=0;exitY=0.5;exitDx=0;exitDy=0;entryX=1;entryY=0.5;entryDx=0;entryDy=0;" edge="1" parent="1" source="_wDtnUVdnjIwgod1rhjn-31" target="_wDtnUVdnjIwgod1rhjn-21">
          <mxGeometry width="50" height="50" relative="1" as="geometry">
            <mxPoint x="280" y="620" as="sourcePoint" />
            <mxPoint x="330" y="570" as="targetPoint" />
          </mxGeometry>
        </mxCell>
        <mxCell id="_wDtnUVdnjIwgod1rhjn-36" value="新加两台8核32G服务器" style="rounded=1;whiteSpace=wrap;html=1;" vertex="1" parent="1">
          <mxGeometry x="100" y="210" width="180" height="60" as="geometry" />
        </mxCell>
        <mxCell id="_wDtnUVdnjIwgod1rhjn-37" value="" style="endArrow=classic;html=1;rounded=0;exitX=0;exitY=0.5;exitDx=0;exitDy=0;entryX=1;entryY=0;entryDx=0;entryDy=0;strokeColor=#3399FF;" edge="1" parent="1" source="_wDtnUVdnjIwgod1rhjn-36" target="_wDtnUVdnjIwgod1rhjn-11">
          <mxGeometry width="50" height="50" relative="1" as="geometry">
            <mxPoint x="370" y="470" as="sourcePoint" />
            <mxPoint x="420" y="420" as="targetPoint" />
          </mxGeometry>
        </mxCell>
        <mxCell id="_wDtnUVdnjIwgod1rhjn-38" value="" style="rounded=0;whiteSpace=wrap;html=1;" vertex="1" parent="1">
          <mxGeometry x="740" y="200" width="260" height="580" as="geometry" />
        </mxCell>
        <mxCell id="_wDtnUVdnjIwgod1rhjn-39" value="" style="rounded=1;whiteSpace=wrap;html=1;" vertex="1" parent="1">
          <mxGeometry x="770" y="220" width="180" height="530" as="geometry" />
        </mxCell>
        <mxCell id="_wDtnUVdnjIwgod1rhjn-40" value="企微&lt;div&gt;&amp;nbsp;动态表单&lt;/div&gt;&lt;div&gt;大宗云店&lt;br&gt;&lt;div&gt;&amp;nbsp;Social Retainer&lt;/div&gt;&lt;/div&gt;" style="text;html=1;align=center;verticalAlign=middle;whiteSpace=wrap;rounded=0;" vertex="1" parent="1">
          <mxGeometry x="770" y="210" width="180" height="125" as="geometry" />
        </mxCell>
        <mxCell id="_wDtnUVdnjIwgod1rhjn-41" value="&lt;b&gt;公用资源池&lt;/b&gt;" style="text;html=1;align=center;verticalAlign=middle;whiteSpace=wrap;rounded=0;" vertex="1" parent="1">
          <mxGeometry x="820" y="720" width="80" height="30" as="geometry" />
        </mxCell>
        <mxCell id="_wDtnUVdnjIwgod1rhjn-42" value="" style="aspect=fixed;sketch=0;html=1;dashed=0;whitespace=wrap;verticalLabelPosition=bottom;verticalAlign=top;fillColor=#2875E2;strokeColor=#ffffff;points=[[0.005,0.63,0],[0.1,0.2,0],[0.9,0.2,0],[0.5,0,0],[0.995,0.63,0],[0.72,0.99,0],[0.5,1,0],[0.28,0.99,0]];shape=mxgraph.kubernetes.icon2;prIcon=node" vertex="1" parent="1">
          <mxGeometry x="940" y="456" width="35.42" height="34" as="geometry" />
        </mxCell>
        <mxCell id="_wDtnUVdnjIwgod1rhjn-43" value="生产集群" style="text;html=1;align=center;verticalAlign=middle;whiteSpace=wrap;rounded=0;" vertex="1" parent="1">
          <mxGeometry x="1000" y="425" width="20" height="80" as="geometry" />
        </mxCell>
        <mxCell id="_wDtnUVdnjIwgod1rhjn-44" value="139.196.91.226" style="rounded=1;whiteSpace=wrap;html=1;" vertex="1" parent="1">
          <mxGeometry x="550" y="420" width="120" height="50" as="geometry" />
        </mxCell>
        <mxCell id="_wDtnUVdnjIwgod1rhjn-45" value="统一出口IP" style="text;html=1;align=center;verticalAlign=middle;whiteSpace=wrap;rounded=0;" vertex="1" parent="1">
          <mxGeometry x="570" y="377" width="80" height="30" as="geometry" />
        </mxCell>
        <mxCell id="_wDtnUVdnjIwgod1rhjn-46" value="cn-shanghai.172.20.1.1" style="rounded=0;whiteSpace=wrap;html=1;" vertex="1" parent="1">
          <mxGeometry x="790" y="400" width="140" height="30" as="geometry" />
        </mxCell>
        <mxCell id="_wDtnUVdnjIwgod1rhjn-47" value="cn-shanghai.172.20.1.7" style="rounded=0;whiteSpace=wrap;html=1;" vertex="1" parent="1">
          <mxGeometry x="790" y="450" width="140" height="30" as="geometry" />
        </mxCell>
        <mxCell id="_wDtnUVdnjIwgod1rhjn-48" value="cn-shanghai.172.20.1.12" style="rounded=0;whiteSpace=wrap;html=1;" vertex="1" parent="1">
          <mxGeometry x="790" y="500" width="140" height="30" as="geometry" />
        </mxCell>
        <mxCell id="_wDtnUVdnjIwgod1rhjn-49" value="cn-shanghai.172.20.1.35" style="rounded=0;whiteSpace=wrap;html=1;" vertex="1" parent="1">
          <mxGeometry x="790" y="545" width="140" height="30" as="geometry" />
        </mxCell>
        <mxCell id="_wDtnUVdnjIwgod1rhjn-50" value="cn-shanghai.172.20.1.36" style="rounded=0;whiteSpace=wrap;html=1;" vertex="1" parent="1">
          <mxGeometry x="790" y="592" width="140" height="30" as="geometry" />
        </mxCell>
        <mxCell id="_wDtnUVdnjIwgod1rhjn-51" value="cn-shanghai.172.20.1.37" style="rounded=0;whiteSpace=wrap;html=1;" vertex="1" parent="1">
          <mxGeometry x="790" y="640" width="140" height="30" as="geometry" />
        </mxCell>
        <mxCell id="_wDtnUVdnjIwgod1rhjn-52" value="cn-shanghai.172.20.1.41" style="rounded=0;whiteSpace=wrap;html=1;" vertex="1" parent="1">
          <mxGeometry x="790" y="690" width="140" height="30" as="geometry" />
        </mxCell>
        <mxCell id="_wDtnUVdnjIwgod1rhjn-53" value="" style="endArrow=classic;html=1;rounded=0;exitX=0.022;exitY=0.419;exitDx=0;exitDy=0;entryX=1;entryY=0.5;entryDx=0;entryDy=0;strokeColor=#3399FF;exitPerimeter=0;" edge="1" parent="1" source="_wDtnUVdnjIwgod1rhjn-39" target="_wDtnUVdnjIwgod1rhjn-44">
          <mxGeometry width="50" height="50" relative="1" as="geometry">
            <mxPoint x="1040" y="470" as="sourcePoint" />
            <mxPoint x="1090" y="420" as="targetPoint" />
          </mxGeometry>
        </mxCell>
        <mxCell id="_wDtnUVdnjIwgod1rhjn-54" value="新加两台8核32G服务器" style="rounded=0;whiteSpace=wrap;html=1;" vertex="1" parent="1">
          <mxGeometry x="790" y="323.5" width="140" height="63" as="geometry" />
        </mxCell>
      </root>
    </mxGraphModel>
  </diagram>
</mxfile>
